<?xml version="1.0" encoding="UTF-8"?>
<svg id="Layer_1" xmlns="http://www.w3.org/2000/svg" version="1.1" xmlns:xlink="http://www.w3.org/1999/xlink" viewBox="0 0 512 512">
  <!-- Generator: Adobe Illustrator 29.6.1, SVG Export Plug-In . SVG Version: 2.1.1 Build 9)  -->
  <defs>
    <style>
      .st0 {
        fill: #6d6e71;
        stroke: #231f20;
        stroke-miterlimit: 10;
        stroke-width: .8px;
      }
    </style>
  </defs>
  <image width="1024" height="1024" transform="scale(.5)" xlink:href="Inside elevator copy.png"/>
  <polygon class="st0" points="188.9 388.9 139.6 389.4 137.9 66.6 188.9 66.6 188.9 388.9"/>
  <path class="st0" d="M373.6,66.6h-50.5l-.7,324.3,51.8-.5-.5-323.8ZM341.5,199.6c1.9,0,3.5,1.5,3.5,3.4s-1.5,3.5-3.5,3.5-3.4-1.5-3.4-3.5,1.5-3.4,3.4-3.4ZM338.1,194.6c0-1.9,1.5-3.5,3.4-3.5s3.5,1.5,3.5,3.5-1.5,3.4-3.5,3.4-3.4-1.5-3.4-3.4ZM341.4,208c1.9,0,3.4,1.5,3.4,3.5s-1.5,3.4-3.4,3.4-3.5-1.5-3.5-3.4,1.5-3.5,3.5-3.5ZM341,216.5c1.9,0,3.5,1.5,3.5,3.4s-1.5,3.4-3.5,3.4-3.4-1.5-3.4-3.4,1.5-3.4,3.4-3.4ZM344.7,228.3c0,1.9-1.5,3.4-3.4,3.4s-3.5-1.5-3.5-3.4,1.5-3.5,3.5-3.5,3.4,1.5,3.4,3.5ZM341.3,233.1c1.9,0,3.4,1.6,3.4,3.5s-1.5,3.5-3.4,3.5-3.5-1.5-3.5-3.5,1.5-3.5,3.5-3.5ZM341.4,241.4c1.9,0,3.4,1.5,3.4,3.4s-1.5,3.5-3.4,3.5-3.5-1.5-3.5-3.5,1.5-3.4,3.5-3.4ZM338.1,254c0-1.9,1.5-3.5,3.4-3.5s3.5,1.5,3.5,3.5-1.5,3.5-3.5,3.5-3.4-1.5-3.4-3.5ZM347.3,269.5c-1.9,0-3.5-1.5-3.5-3.5s1.5-3.4,3.5-3.4,3.4,1.5,3.4,3.4-1.5,3.5-3.4,3.5ZM353.2,233.1c1.9,0,3.5,1.6,3.5,3.5s-1.5,3.5-3.5,3.5-3.5-1.5-3.5-3.5,1.6-3.5,3.5-3.5ZM349.7,228.3c0-1.9,1.6-3.5,3.5-3.5s3.5,1.5,3.5,3.5-1.5,3.4-3.5,3.4-3.5-1.5-3.5-3.4ZM353.3,241.4c1.9,0,3.4,1.5,3.4,3.4s-1.5,3.5-3.4,3.5-3.5-1.5-3.5-3.5,1.5-3.4,3.5-3.4ZM353.3,214.9c-1.9,0-3.5-1.5-3.5-3.4s1.5-3.5,3.5-3.5,3.4,1.5,3.4,3.5-1.5,3.4-3.4,3.4ZM352.9,216.5c1.9,0,3.5,1.5,3.5,3.4s-1.5,3.4-3.5,3.4-3.4-1.5-3.4-3.4,1.5-3.4,3.4-3.4ZM353.4,257.4c-1.9,0-3.5-1.5-3.5-3.5s1.5-3.5,3.5-3.5,3.4,1.5,3.4,3.5-1.5,3.5-3.4,3.5ZM353.4,206.5c-1.9,0-3.5-1.5-3.5-3.5s1.5-3.4,3.5-3.4,3.4,1.5,3.4,3.4-1.5,3.5-3.4,3.5ZM353.4,198.1c-1.9,0-3.5-1.5-3.5-3.4s1.5-3.5,3.5-3.5,3.4,1.5,3.4,3.5-1.5,3.4-3.4,3.4ZM357,124.9h-18.8v-20h18.8v20Z"/>
  <path class="st0" d="M99.7,0l38.1,66.6h235.7L414.7,0H99.7ZM167.3,44.6c-5.6,0-10.2-3.4-10.2-7.6s4.6-7.6,10.2-7.6,10.2,3.4,10.2,7.6-4.6,7.6-10.2,7.6ZM345.3,44.6c-5.8,0-10.5-3.2-10.5-7.1s4.7-7.2,10.5-7.2,10.5,3.2,10.5,7.2-4.7,7.1-10.5,7.1Z"/>
  <rect class="st0" x="190.6" y="66.6" width="36.6" height="15.5"/>
  <rect class="st0" x="284.1" y="66.6" width="36.3" height="15.5"/>
  <polygon class="st0" points="193 389 188.9 389 188.9 88.6 190.6 88.6 193 389"/>
  <polygon class="st0" points="188.9 400.7 139.6 400.4 139.6 389.4 188.9 388.9 188.9 400.7"/>
  <polygon class="st0" points="192.9 394 190 400.7 188.9 400.7 188.9 388.9 193 389 192.9 394"/>
  <polygon class="st0" points="139.6 400.4 46.8 512 29.6 511.8 139.6 389.4 139.6 400.4"/>
  <rect class="st0" x="188.9" y="66.6" width="1.7" height="22"/>
  <polygon class="st0" points="322.3 391 320.1 391 320.4 82.2 323 82.1 322.3 391"/>
  <rect class="st0" x="320.4" y="66.6" width="2.6" height="15.5"/>
  <polygon class="st0" points="373.3 399.6 322.3 400.4 322.3 391 374.1 390.4 373.3 399.6"/>
  <polygon class="st0" points="322.3 400.4 320.1 394 320.1 391 322.3 391 322.3 400.4"/>
  <polygon class="st0" points="482 512 465 512 373.3 399.6 374.1 390.4 482 512"/>
  <rect class="st0" x="227.2" y="79.1" width="56.9" height="3"/>
  <polygon class="st0" points="390.7 257.4 373.9 257.4 373.6 66.6 391.7 37.3 390.7 257.4"/>
  <polygon class="st0" points="443.9 257.4 390.7 257.4 391.7 37.3 414.7 0 443.6 0 443.9 257.4"/>
  <polygon class="st0" points="512 257.4 443.9 257.4 443.6 0 512 0 512 257.4"/>
  <polygon class="st0" points="390.7 409.1 374.1 390.5 373.9 265.6 390.7 266 390.7 409.1"/>
  <polygon class="st0" points="442.1 467.1 390.7 409.1 390.7 266 443.9 268 442.1 467.1"/>
  <polygon class="st0" points="512 512 482 512 442.1 467.1 443.9 268.2 512 269.9 512 512"/>
  <polygon class="st0" points="138.9 257.4 121 257.4 120.8 36.9 137.9 66.6 138.9 257.4"/>
  <polygon class="st0" points="121 257.4 69 257.4 68.2 0 99.7 0 120.8 36.9 121 257.4"/>
  <polygon class="st0" points="69 257.4 0 258.4 0 0 68.2 0 69 257.4"/>
  <polygon class="st0" points="139.6 389.5 121.1 410 121.1 266.7 138.9 264.9 139.6 389.5"/>
  <polygon class="st0" points="120.8 410 69 468 68.2 269.2 121.1 266.7 120.8 410"/>
  <polygon class="st0" points="69 468 29.6 511.8 0 512 0 272.7 68.2 269.2 69 468"/>
  <polygon class="st0" points="256 424.6 187.7 424 199.9 394.8 256 394.8 256 424.6"/>
  <polygon class="st0" points="324.3 424.6 256 424.6 256 394.8 312.3 394.8 324.3 424.6"/>
  <polygon class="st0" points="392.6 423.2 324.3 424.6 314.6 400.4 312.3 394.8 320.3 394.8 322.3 400.4 373.3 399.6 392.6 423.2"/>
  <polygon class="st0" points="187.7 424 119.9 424.1 139.6 400.4 190 400.7 192.6 394.8 199.9 394.8 187.7 424"/>
  <polygon class="st0" points="171.6 463 87.8 462.7 119.9 424.1 187.7 424 171.6 463"/>
  <polygon class="st0" points="256 463 171.6 463 187.7 424 256 424.6 256 463"/>
  <polygon class="st0" points="340.4 462.4 256 463 256 424.6 324.3 424.6 340.4 462.4"/>
  <polygon class="st0" points="424.6 462.4 340.4 462.4 324.3 424.6 392.6 423.2 424.6 462.4"/>
  <polygon class="st0" points="150.2 512.4 46.8 512 87.8 462.7 171.6 463 150.2 512.4"/>
  <polygon class="st0" points="256 512 150.2 512.4 171.6 463 256 463 256 512"/>
  <polygon class="st0" points="360.7 512.4 256 512 256 463 340.4 462.4 360.7 512.4"/>
  <polygon class="st0" points="465 512 360.7 512.4 340.4 462.4 424.6 462.4 465 512"/>
</svg>