<?xml version="1.0" encoding="UTF-8"?>
<svg id="Layer_1" xmlns="http://www.w3.org/2000/svg" version="1.1" xmlns:xlink="http://www.w3.org/1999/xlink" viewBox="0 0 512 512">
  <!-- Generator: Adobe Illustrator 29.6.1, SVG Export Plug-In . SVG Version: 2.1.1 Build 9)  -->
  <defs>
    <style>
      .st0 {
        fill: #6d6e71;
        stroke: #231f20;
        stroke-miterlimit: 10;
        stroke-width: .8px;
      }
    </style>
  </defs>
  <image width="2048" height="2048" transform="translate(.8 .4) scale(.2)" xlink:href="../../Downloads/Outside elevator copy.png"/>
  <polygon class="st0" points="330.8 361.7 178.3 361.7 178.6 352.5 330.5 352.2 330.8 361.7"/>
  <polygon class="st0" points="178.3 361.7 148.3 402.4 145.9 393.5 178.6 352.5 178.3 361.7"/>
  <polygon class="st0" points="359.7 403.6 330.8 361.7 330.5 352.2 359.5 390.7 359.7 403.6"/>
  <path class="st0" d="M149.4,79.2v9.2l27.7,47h153.1l28.1-41.9v-12.4l-209-1.9ZM183.6,93.7c0-3,4.1-5.4,9.2-5.4s9.2,2.4,9.2,5.4-4.1,5.4-9.2,5.4-9.2-2.4-9.2-5.4ZM204,125.2c-4.2,0-7.6-1.6-7.6-3.6s3.4-3.6,7.6-3.6,7.6,1.6,7.6,3.6-3.4,3.6-7.6,3.6ZM305.4,125.2c-4.5,0-8.1-1.4-8.1-3.2s3.6-3.2,8.1-3.2,8.1,1.4,8.1,3.2-3.6,3.2-8.1,3.2ZM315.4,98.8c-5.1,0-9.2-2.4-9.2-5.4s4.1-5.4,9.2-5.4,9.2,2.4,9.2,5.4-4.1,5.4-9.2,5.4Z"/>
  <rect class="st0" x="177.1" y="135.4" width="43.7" height="8.7"/>
  <rect class="st0" x="220.7" y="135.4" width="66.9" height="8.7"/>
  <rect class="st0" x="287.6" y="135.4" width="42.6" height="8.7"/>
  <rect class="st0" x="177.1" y="144" width="27.8" height="125.4"/>
  <rect class="st0" x="303.3" y="144" width="27" height="125.4"/>
  <rect class="st0" x="178.6" y="276.3" width="26.3" height="76.2"/>
  <polygon class="st0" points="330.5 352.2 304 352.2 304 277.8 330.8 277.8 330.5 352.2"/>
  <polygon class="st0" points="221.2 352.4 204.9 352.5 204.9 341.8 221.2 341.8 221.2 352.4"/>
  <rect class="st0" x="287.6" y="341.8" width="16.3" height="10.4"/>
  <polygon class="st0" points="287.6 352.2 221.2 352.4 221.2 341.8 287.6 341.8 287.6 352.2"/>
  <path class="st0" d="M187.1,276.3h-8.6c3.2-1.8,6.2-5.3-.7-6.8h9.3c-1.3,2.1-1.4,4.3,0,6.8Z"/>
  <rect class="st0" x="187.1" y="274.5" width="11.4" height="1.7"/>
  <rect class="st0" x="310.1" y="275" width="11.4" height="2.8"/>
  <path class="st0" d="M330.4,277.9h-8.9c1.3-4.4,1.8-7.8,0-8.4h8.7c-6.7,1-6.1,4.7.2,8.4Z"/>
  <polygon class="st0" points="216 377.5 166.5 377.8 178.3 361.7 221.2 361.7 216 377.5"/>
  <polygon class="st0" points="207.5 402.4 148.6 402 166.5 377.8 216 377.5 207.5 402.4"/>
  <polygon class="st0" points="196.6 438.2 144.8 438.2 149.4 433 149.4 402.2 208.3 402.6 196.6 438.2"/>
  <polygon class="st0" points="293 377.5 216 377.5 221.2 361.7 288.1 361.7 293 377.5"/>
  <polygon class="st0" points="300.5 403.3 207.5 402.4 216 377.5 293 377.5 300.5 403.3"/>
  <polygon class="st0" points="311.3 437.8 195.8 438 207.5 402.4 300.5 403.3 311.3 437.8"/>
  <polygon class="st0" points="341.5 377.2 293 377.5 288.1 361.7 330.8 361.7 341.5 377.2"/>
  <polygon class="st0" points="359.7 403.6 300.5 403.3 293 377.5 341.5 377.2 359.7 403.6"/>
  <polygon class="st0" points="363.4 438 311.3 437.8 300.5 403.3 359.7 403.6 359.7 430.9 363.4 438"/>
  <polygon class="st0" points="337.9 271 330.3 269.5 330.3 135.4 339.4 121.5 337.9 271"/>
  <polygon class="st0" points="350 273.7 337.9 271 339.4 121.5 349.5 106.7 350 273.7"/>
  <polygon class="st0" points="358.9 276.3 350 273.7 349.5 106.7 358.4 93.5 358.9 276.3"/>
  <polygon class="st0" points="337 360.6 330.5 352.2 330.8 277.8 337.9 278.5 337 360.6"/>
  <polygon class="st0" points="349.9 377.9 337 360.6 337.9 278.5 349.5 280.7 349.9 377.9"/>
  <polygon class="st0" points="359.5 390.7 349.9 377.9 349.5 280.7 359.1 285.4 359.5 390.7"/>
  <polygon class="st0" points="177.1 269.5 169.1 271 170 123.3 177.1 135.4 177.1 269.5"/>
  <polygon class="st0" points="157.9 275 169.1 271 170 123.3 157.9 102.8 157.9 275"/>
  <polygon class="st0" points="157.9 275 149.4 276.4 149.4 88.4 157.9 102.8 157.9 275"/>
  <polygon class="st0" points="178.6 352.5 172.1 360.6 171.7 278.5 178.6 276.3 178.6 352.5"/>
  <polygon class="st0" points="172.1 360.6 158.7 378.1 158.2 282.6 171.7 278.5 172.1 360.6"/>
  <polygon class="st0" points="158.7 378.1 145.9 393.5 148.4 284.9 158.2 282.6 158.7 378.1"/>
  <polygon class="st0" points="365 65.8 139 66.8 133.9 56.9 370.4 56.9 365 65.8"/>
  <polygon class="st0" points="374.2 56.8 133.9 56.9 123.7 41.3 383 41.3 374.2 56.8"/>
  <polygon class="st0" points="134.3 455.1 124 471.2 123.7 41.3 133.9 56.9 134.3 455.1"/>
  <polygon class="st0" points="373.4 454 369.9 450.2 370.4 56.9 374.2 56.9 373.4 454"/>
  <polygon class="st0" points="383.2 470.7 373.5 455.3 374.2 56.8 383 41.3 383.2 470.7"/>
  <polygon class="st0" points="369.9 450.2 366.5 441.9 365 65.8 370.4 56.9 369.9 450.2"/>
  <polygon class="st0" points="358.4 81.1 149.7 79.2 139 66.8 365 65.8 358.4 81.1"/>
  <polygon class="st0" points="366.5 441.9 363.4 438 359.7 430.9 359.7 403.6 358.4 81.1 365 65.8 366.5 441.9"/>
  <polygon class="st0" points="136.9 450 134.4 455.1 133.9 56.9 139 66.8 136.9 450"/>
  <polygon class="st0" points="140.9 442.6 136.9 450 139 66.8 144.1 72.7 140.9 442.6"/>
  <polygon class="st0" points="144 438 140.9 441.7 144.1 72.7 149.4 79.2 149.4 88.4 149.4 276.4 148.4 284.9 145.9 393.5 144 438"/>
  <path class="st0" d="M123.7.4v40.9h259.3V.4H123.7ZM265.5,32h-23.2v-14.3h23.2v14.3Z"/>
  <path class="st0" d="M383.2.4v470.2h63.7V.4h-63.7ZM427.9,289h-26.2v-74.5h26.2v74.5Z"/>
  <rect class="st0" x="57" y=".4" width="67" height="470.8"/>
</svg>