<?xml version="1.0" encoding="UTF-8"?>
<svg id="Layer_1" xmlns="http://www.w3.org/2000/svg" version="1.1" xmlns:xlink="http://www.w3.org/1999/xlink" viewBox="0 0 512 512">
  <!-- Generator: Adobe Illustrator 29.6.1, SVG Export Plug-In . SVG Version: 2.1.1 Build 9)  -->
  <defs>
    <style>
      .st0 {
        fill: #6d6e71;
        stroke: #231f20;
        stroke-miterlimit: 10;
        stroke-width: .8px;
      }
    </style>
  </defs>
  <image width="2048" height="2048" transform="scale(.2)" xlink:href="../../Downloads/Outside elevator copy.png"/>
  <polygon class="st0" points="329.9 361.3 177.5 361.3 177.8 352.1 329.7 351.8 329.9 361.3"/>
  <polygon class="st0" points="177.5 361.3 147.5 402 145.1 393.1 177.8 352.1 177.5 361.3"/>
  <polygon class="st0" points="358.9 403.2 329.9 361.3 329.7 351.8 359.5 390.3 358.9 403.2"/>
  <path class="st0" d="M148.6,78.8v9.2l27.7,47h153.1l28.1-41.9v-12.4l-209-1.9ZM182.8,93.3c0-3,4.1-5.4,9.2-5.4s9.2,2.4,9.2,5.4-4.1,5.4-9.2,5.4-9.2-2.4-9.2-5.4ZM203.1,124.8c-4.2,0-7.6-1.6-7.6-3.6s3.4-3.6,7.6-3.6,7.6,1.6,7.6,3.6-3.4,3.6-7.6,3.6ZM304.6,124.8c-4.5,0-8.1-1.4-8.1-3.2s3.6-3.2,8.1-3.2,8.1,1.4,8.1,3.2-3.6,3.2-8.1,3.2ZM314.5,98.5c-5.1,0-9.2-2.4-9.2-5.4s4.1-5.4,9.2-5.4,9.2,2.4,9.2,5.4-4.1,5.4-9.2,5.4Z"/>
  <rect class="st0" x="176.2" y="135" width="43.7" height="8.7"/>
  <rect class="st0" x="219.9" y="135" width="66.9" height="8.7"/>
  <rect class="st0" x="286.8" y="135" width="42.6" height="8.7"/>
  <rect class="st0" x="176.2" y="143.6" width="27.8" height="125.4"/>
  <rect class="st0" x="302.4" y="143.6" width="27" height="125.4"/>
  <rect class="st0" x="177.8" y="275.9" width="26.3" height="76.2"/>
  <polygon class="st0" points="329.7 351.8 303.1 351.8 303.1 277.4 329.9 277.4 329.7 351.8"/>
  <polygon class="st0" points="220.4 352 204.1 352.1 204.1 341.4 220.4 341.4 220.4 352"/>
  <rect class="st0" x="286.8" y="341.4" width="16.3" height="10.4"/>
  <polygon class="st0" points="286.8 351.8 220.4 352 220.4 341.4 286.8 341.4 286.8 351.8"/>
  <path class="st0" d="M186.3,275.9h-8.6c3.2-1.8,6.2-5.3-.7-6.8h9.3c-1.3,2.1-1.4,4.3,0,6.8Z"/>
  <rect class="st0" x="186.3" y="274.1" width="11.4" height="1.7"/>
  <rect class="st0" x="309.3" y="274.6" width="11.4" height="2.8"/>
  <path class="st0" d="M329.6,277.5h-8.9c1.3-4.4,1.8-7.8,0-8.4h8.7c-6.7,1-6.1,4.7.2,8.4Z"/>
  <polygon class="st0" points="215.1 377.1 165.6 377.4 177.5 361.3 220.4 361.3 215.1 377.1"/>
  <polygon class="st0" points="206.7 402 147.8 401.6 165.6 377.4 215.1 377.1 206.7 402"/>
  <polygon class="st0" points="195 437.6 143.2 437.6 147.8 432.4 147.8 401.6 206.7 402 195 437.6"/>
  <polygon class="st0" points="292.1 377.1 215.1 377.1 220.4 361.3 287.3 361.3 292.1 377.1"/>
  <polygon class="st0" points="299.7 402.9 206.7 402 215.1 377.1 292.1 377.1 299.7 402.9"/>
  <polygon class="st0" points="310.4 437.4 195 437.6 206.7 402 299.7 402.9 310.4 437.4"/>
  <polygon class="st0" points="340.6 376.8 292.1 377.1 287.3 361.3 329.9 361.3 340.6 376.8"/>
  <polygon class="st0" points="358.9 403.2 299.7 402.9 292.1 377.1 340.6 376.8 358.9 403.2"/>
  <polygon class="st0" points="362.6 437.6 310.4 437.4 299.7 402.9 358.9 403.2 358.9 430.5 362.6 437.6"/>
  <polygon class="st0" points="337.1 270.6 329.4 269.1 329.4 135 338.6 121.1 337.1 270.6"/>
  <polygon class="st0" points="349.2 273.3 337.1 270.6 338.6 121.1 348.7 106.3 349.2 273.3"/>
  <polygon class="st0" points="358.1 275.9 349.2 273.3 348.7 106.3 357.5 93.1 358.1 275.9"/>
  <polygon class="st0" points="336.2 360.3 329.7 351.8 329.9 277.4 337.1 278.1 336.2 360.3"/>
  <polygon class="st0" points="349.2 377.1 336.2 359.7 337.1 278.1 348.7 280.3 349.2 377.1"/>
  <polygon class="st0" points="359.5 390.3 349.2 377.1 348.7 280.3 358.1 284.1 359.5 390.3"/>
  <polygon class="st0" points="176.2 269.1 168.3 270.6 169.2 122.9 176.3 135 176.2 269.1"/>
  <polygon class="st0" points="157.1 274.6 168.3 270.6 169.2 122.9 157.1 102.4 157.1 274.6"/>
  <polygon class="st0" points="157.1 274.6 148.6 276 148.6 88 157.1 102.4 157.1 274.6"/>
  <polygon class="st0" points="177.8 352.1 171.3 360.3 170.9 278.1 177.8 275.9 177.8 352.1"/>
  <polygon class="st0" points="171.3 360.3 157.9 377.7 157.3 282.2 170.9 278.1 171.3 360.3"/>
  <polygon class="st0" points="157.9 377.7 145.1 393.1 147.6 284.5 157.3 282.2 157.9 377.7"/>
</svg>