<?xml version="1.0" encoding="UTF-8"?>
<svg id="Layer_1" xmlns="http://www.w3.org/2000/svg" version="1.1" viewBox="0 0 512 512">
  <!-- Generator: Adobe Illustrator 29.6.1, SVG Export Plug-In . SVG Version: 2.1.1 Build 9)  -->
  <defs>
    <style>
      .st0 {
        fill: #fff;
      }

      .st1 {
        fill: #78a340;
      }

      .st2 {
        fill: #131130;
      }
    </style>
  </defs>
  <path class="st2" d="M397.88,194.15c35.55,8.1,68.03-2.42,96.69-36.15-6.97,27-21.31,39.64-52.05,51.4,6.13,1.43,14.61.4,23.74-1.31-31.71,21.88-61.43,36.73-87.25,37.86,22.6,13.29,45.96,7.74,69.83-9.99-6.7,15.33-21.48,26.88-51.39,31.36,8.12,3.37,15.9,3.32,23.52,1.74-19.82,11.22-41.4,16.43-64.46,16.61,13.96,9.56,32.16,10.46,54.88,2.12-20.28,30.01-54.3,28.98-89.72,24.83,5.92,12.39,19.18,16.96,38.33,15.24-27.38,18.63-48.28,10.57-67.94-2.61,11.22,16.09,21.91,26.99,31.79,30.22-12.64,1.42-25.85-.88-37.02-10.18l-3.92-128.92c4.58-25.56,35.13-50.9,75.76-61.11,35.53-11.95,72.32-29.05,101.07-65.64-.86,12.11-5.26,24.95-12.2,38.33,27.7-15.27,45.3-44.41,49.22-84.06,4.91,20.62,2,51.82,2,51.82-2.3,7.97-4.14,12.25-5.71,14.44,0,0-12.84,23.65-23.78,34.96-13.98,14.45-30.21,26.56-47.85,36.2l-23.52,12.85Z"/>
  <path class="st2" d="M113.38,194.15c-35.55,8.1-68.03-2.42-96.69-36.15,6.97,27,21.31,39.64,52.05,51.4-6.13,1.43-14.61.4-23.74-1.31,31.71,21.88,61.43,36.73,87.25,37.86-22.6,13.29-45.96,7.74-69.83-9.99,6.7,15.33,21.48,26.88,51.39,31.36-8.12,3.37-15.9,3.32-23.52,1.74,19.82,11.22,41.4,16.43,64.46,16.61-13.96,9.56-32.16,10.46-54.88,2.12,20.28,30.01,54.3,28.98,89.72,24.83-5.92,12.39-19.18,16.96-38.33,15.24,27.38,18.63,48.28,10.57,67.94-2.61-11.22,16.09-21.91,26.99-31.79,30.22,12.64,1.42,24.54-2.63,35.71-11.92l5.23-127.18c-3.7-20.65-54.68-55.81-75.76-61.11-35.53-11.95-72.32-29.05-101.07-65.64.86,12.11,5.26,24.95,12.2,38.33-27.7-15.27-45.3-44.41-49.22-84.06-4.91,20.62-2,51.82-2,51.82,2.3,7.97,4.14,12.25,5.71,14.44,0,0,12.84,23.65,23.78,34.96,13.98,14.45,30.21,26.56,47.85,36.2l23.52,12.85Z"/>
  <path class="st2" d="M267.78,421.55c-5.3,14.35-9.32,30.05-12.59,46.56-3.72-17.67-7.74-33.76-12.36-46.52-3.41-9.41-4.96-19.36-4.29-29.35.29-4.35.75-8.98,1.29-13.74-11.13,11.42-17.15,28.93-19.65,50.63-1.78-8.14-3.24-16.21-4.1-24.15-1.26-11.54-.34-23.21,2.38-34.5l2.58-23.01,3.44-119.51c3.76-11.19,1.59-20.1-2.78-27.99l-.61-1.1c3.38-17.75,10.94-32.11,22.83-42.98-5.29.04-9.79-2.38-13.64-6.86l13.64-.49c-6.78-1.88-11.85-6.61-14.7-15.03,3.77,3.54,7.64,5.52,11.6,6.21l-4.88-6.78c-.64-.89-.88-2-.68-3.07l1.5-7.79c1.83,6.88,6.2,11.07,14.18,11.43l34.46-2.12c7.73-.09,13.18,2.72,16.17,8.66l-2.94,2.12h10.94l12.58,14.86c-10.08-3.25-20.04-1.83-29.89,4.57-15.55,15.58-18.5,32.01-11.91,49.06,1.59,4.11,2.63,8.4,2.76,12.8l3.7,121.83,6.67,38.68c1.35,7.85,1.41,15.86.18,23.73l-3.36,21.44c-3.41-22.09-8.78-41.08-20.2-50.47.38,1.67.73,3.33,1.06,4.97,2.48,12.7,1.11,25.78-3.37,37.92Z"/>
  <g>
    <path class="st1" d="M367.39,132.85c-71.31-59.04-159.82-51.77-224.41.65l-16.33-7.19c79.38-75.13,175.74-72.52,257.73-.33l-16.99,6.86Z"/>
    <path class="st1" d="M442.52,283.11c-17.27,82.64-70.29,128.63-123.15,146.02l.98-18.62c55.15-20.92,89.12-64.68,105.51-127.4h16.66Z"/>
    <path class="st1" d="M197.53,427.82c-66.31-23.85-111.49-69.87-123.48-144.71h17.31c16.49,73.37,39.1,98.76,106.82,129.68l-.65,15.03Z"/>
  </g>
  <path class="st0" d="M235.42,234.6h-3.59c-3.71-26.14-1.1-45.25,11.4-59.09-8.09,19.25-9.54,38.12-7.81,59.09Z"/>
</svg>